<?xml version="1.0" standalone="no"?>
<!DOCTYPE svg PUBLIC "-//W3C//DTD SVG 1.1//EN" "http://www.w3.org/Graphics/SVG/1.1/DTD/svg11.dtd" >
<!--
2013-9-30: Created.
-->
<svg>
<metadata>
Created by iconfont
</metadata>
<defs>

<font id="anticon-user" horiz-adv-x="1024" >
  <font-face
    font-family="anticon-user"
    font-weight="500"
    font-stretch="normal"
    units-per-em="1024"
    ascent="896"
    descent="-128"
  />
    <missing-glyph />
    
    <glyph glyph-name="editpwd" unicode="&#58643;" d="M981.77176853 540.79343147L534.86693653 93.86676907000003l-23.1621952 3.70464106-3.70354986 23.1632864 446.9037408 446.904832L981.77176853 540.79343147zM143.93340587 462.229712l-10.5659776 0L143.93340587 462.229712zM810.70226027 245.31390293000004l0-258.08928426L126.81499413-12.77538132999996 126.81499413 405.2509312l497.273328 0 0 56.979872L200.6294816 462.23080427l-14.23132373 0-53.02854614 0-12.89966186 0c-27.9856512 0-50.67194027-19.8166656-50.67194027-44.2319328l0-443.59532374c0-24.4349152 22.68628907-44.233024 50.67194027-44.233024l696.57735466 0c27.9856512 0 50.67194027 19.79920107 50.67194027 44.233024L867.7192448 245.31390293000004 810.70226027 245.31390293000004zM312.64849173 803.13857813c-145.74499947-77.1578336-183.15270827-248.17822293-164.744112-397.86690773l55.7824672 1.80320213c-18.6705632 132.193696 5.39541653 282.21857173 133.37581974 349.95216427 139.11397547 73.6409344 312.21808853 20.38644267 385.8612064-118.728624l46.11045013 24.4152672C681.77113707 827.5145504 477.44827093 890.38320853 312.64849173 803.13857813z"  horiz-adv-x="1024" />

    
    <glyph glyph-name="tel" unicode="&#58658;" d="M789.797445 291.95770100000004c-22.748097 4.214998-65.342194-34.390251-65.342194-34.390251 121.812323-76.93216 121.496122-170.350806 121.496122-170.350806s27.710109 13.8351 42.240033 37.620829c14.518668 23.783683 19.491936 51.859112-15.818267 101.045347C836.99949 275.115104 812.61001 287.61376600000006 789.797445 291.95770100000004L789.797445 291.95770100000004zM335.612199 688.965713c-23.01518-2.473331-52.466955-51.935859-52.466955-51.935859 138.994658-37.97387 166.061107-127.403668 166.061107-127.403668s23.567765 30.423917 30.537504 57.390082c6.91755 26.939559 2.298346 46.281069-45.890166 82.993203C385.706107 686.718533 358.664218 691.5168160000001 335.612199 688.965713L335.612199 688.965713zM511.986185 829.324438c-247.159146 0-448.264397-199.793372-448.264397-445.3623 0-245.49218 201.104227-445.285552 448.264397-445.285552 110.956068 0 211.973786 40.902572 290.322202 107.509573 8.394181 1.664919 31.017434 8.230452 26.107611 31.410384-5.947456 28.428469-50.206472 120.208802-118.253264 160.529113 0 0-25.677822 15.20019-48.110741-12.497639 0 0-35.059494-12.573363-111.663172 61.35437-76.591399 73.977875-145.923464 130.080637-120.864742 205.396997 0 0 11.235902 40.272215-83.231633 93.698009-94.442976 53.527101-101.334943 19.543102-105.994056 5.681396-4.595668-13.912871-30.715559-65.748447-11.211343-116.27112 15.869433-41.128723 67.048045-145.658428 217.643925-288.287869 126.370129-119.529327 204.287733-165.582199 264.667915-166.868495-59.21873-32.29452-127.138632-50.875714-199.412702-50.875714-230.191706 0-417.460834 185.981808-417.460834 414.505525 0 228.602511 187.269128 414.583297 417.460834 414.583297 230.179426 0 417.447531-185.981808 417.447531-414.583297 0-2.498914-0.353041-4.974291-0.428765-7.472182l30.841426 0c0.051165 2.49789 0.429789 4.973268 0.429789 7.472182C960.276165 629.530043 759.145331 829.324438 511.986185 829.324438L511.986185 829.324438zM511.986185 829.324438"  horiz-adv-x="1024" />

    
    <glyph glyph-name="safety" unicode="&#58647;" d="M555.426046-45.379234999999994C535.235437-56.331582000000026 520.565524-61.206713000000036 507.876828-61.206713000000036 495.099089-61.206713000000036 480.852133-56.376104000000055 460.327611-45.023060999999984 117.888653 144.17206999999996 119.023958 247.79641800000002 123.231262 633.376939 123.654219 671.710157 124.099436 712.625636 124.233001 756.4572880000001 177.280653 772.173462 234.001349 786.999201 293.170741 800.578332 357.794046 815.426332 429.674394 825.020766 506.763785 829.1390269999999 653.440654 812.866332 765.947089 791.406853 887.803089 756.25694 888.025698 706.726506 888.671263 660.980418 889.227785 618.595722 894.548133 231.03398300000003 895.839263 138.94076500000006 555.426046-45.379234999999994M956.010394 619.508418C955.342568 668.704939 954.607959 722.375897 954.496654 781.322679 954.474394 796.037114 944.790915 809.015201 930.677524 813.222506 794.619089 854.04894 673.163785 877.979375 511.394046 895.810332 509.613176 896.010679 507.810046 896.03294 506.029176 895.966158 424.020133 891.736592 347.375959 881.541114 278.211436 865.669114 208.623958 849.68581 142.264306 832.010679 81.046914 813.155723 67.067088 808.859375 57.494914 795.903549 57.494914 781.255897 57.494914 728.208245 56.938393 679.367897 56.470914 634.1115480000001 52.241349 249.08754799999997 50.660827 105.01520000000005 428.027089-103.48010399999998 459.147785-120.66549499999996 483.033698-127.98932100000002 507.876828-127.98932100000002 532.274741-127.98932100000002 556.761698-120.62097400000005 587.236828-104.12566900000002 963.156133 99.47224400000005 961.508828 220.03711299999998 956.010394 619.508418M741.989941 604.642609L440.88942 302.406783 293.077246 450.730957C275.736027 468.116696 247.531506 468.183479 230.101245 450.842261 212.693245 433.478783 212.648723 405.296522 229.98994 387.866261L409.345768 207.88713099999995C417.715854 199.51704400000006 429.046637 194.79773899999998 440.88942 194.79773899999998 452.732202 194.79773899999998 464.085246 199.51704400000006 472.433072 207.90939200000003L805.077246 541.822435C822.418463 559.2304349999999 822.373941 587.4349569999999 804.943681 604.7761740000001 787.557941 622.117392 759.331159 622.095131 741.989941 604.642609"  horiz-adv-x="1024" />

    
    <glyph glyph-name="weixin-copy" unicode="&#58666;" d="M571.648 384.06c-10.257 0-20.517-9.525-20.517-21.25 0-9.527 10.255-19.053 20.517-19.053 15.393 0 26.385 9.527 26.385 19.053 0 11.724-10.99 21.25-26.385 21.25v0zM504.225 483c16.123 0 26.385 10.257 26.385 25.651 0 16.123-10.261 25.649-26.385 25.649-15.39 0-30.048-9.527-30.048-25.649-0.001-15.396 14.659-25.651 30.048-25.651v0zM512.287 833.508c-248.427 0-449.813-201.386-449.813-449.813 0-248.425 201.386-449.812 449.813-449.812 248.425 0 449.812 201.386 449.812 449.812 0.001 248.427-201.385 449.813-449.812 449.813v0zM427.275 269.735c-27.119 0-46.906 4.394-72.556 11.725l-74.019-37.38 21.257 63.031c-52.035 36.64-82.818 82.811-82.818 139.243 0 99.67 93.808 175.889 208.137 175.889 101.135 0 191.279-60.097 208.867-145.113-7.328 1.469-13.926 2.199-19.788 2.199-99.67 0-176.619-74.75-176.619-164.894 0-15.388 2.199-29.313 5.863-43.972-5.863-0.728-12.461-0.728-18.324-0.728v0zM732.882 197.91499999999996l14.655-52.77-55.697 31.512c-21.252-4.394-41.773-10.99-63.025-10.99-98.206 0-175.889 67.422-175.889 150.968 0 83.547 77.685 150.97 175.889 150.97 93.072 0 176.619-67.423 176.619-150.97 0-46.9-31.512-88.673-72.552-118.721v0zM359.117 534.3c-15.39 0-31.512-9.527-31.512-25.649 0-15.395 16.122-25.656 31.512-25.656 14.66 0 26.385 10.261 26.385 25.656 0 16.122-11.725 25.649-26.385 25.649v0zM686.712 384.06c-10.995 0-20.522-9.525-20.522-21.25 0-9.527 9.527-19.053 20.522-19.053 14.655 0 25.649 9.527 25.649 19.053 0 11.724-10.994 21.25-25.649 21.25v0zM686.712 384.06z"  horiz-adv-x="1024" />

    
    <glyph glyph-name="sslb" unicode="&#58668;" d="M688.1 261.79999999999995c55.6 0 108.3 19.1 150.6 54.1l81.4-81.4c4.4-4.4 10.2-6.6 15.9-6.6s11.5 2.2 15.9 6.6c8.8 8.8 8.8 23.1 0 31.9l-81.4 81.4c35 42.3 54.1 95 54.1 150.6 0 63.2-24.6 122.6-69.3 167.3C810.6 710.4 751.2 735 688 735s-122.6-24.6-167.3-69.3C476 621 451.4 561.6 451.4 498.4s24.6-122.6 69.3-167.3c44.8-44.7 104.2-69.3 167.4-69.3zM552.7 633.9C588.9 670.1 637 690 688.1 690c51.2 0 99.3-19.9 135.4-56.1 36.2-36.2 56.1-84.3 56.1-135.4 0-51.2-19.9-99.3-56.1-135.4-36.2-36.2-84.3-56.1-135.4-56.1-51.2 0-99.3 19.9-135.4 56.1-36.2 36.2-56.1 84.3-56.1 135.4 0 51.1 19.9 99.2 56.1 135.4zM936.1 78H87.9c-12.4 0-22.5-10.1-22.5-22.5S75.5 33 87.9 33H936c12.4 0 22.5 10.1 22.5 22.5s-10 22.5-22.4 22.5zM87.9 361.5h233.8c12.4 0 22.5 10.1 22.5 22.5s-10.1 22.5-22.5 22.5H87.9c-12.4 0-22.5-10.1-22.5-22.5 0-12.5 10.1-22.5 22.5-22.5zM87.9 690h233.8c12.4 0 22.5 10.1 22.5 22.5S334.1 735 321.7 735H87.9c-12.4 0-22.5-10.1-22.5-22.5S75.5 690 87.9 690z"  horiz-adv-x="1024" />

    
    <glyph glyph-name="zhuanshi" unicode="&#58641;" d="M508.819876-121.63975200000004c-12.720497 0-31.801242 6.360248-38.161491 19.080746L0 552.5465839999999 254.409938 896h515.180124l254.409938-343.453416-477.018634-655.10559c-6.360248-12.720497-25.440994-19.080745-38.16149-19.080746z m-12.720497 57.242236z m25.440994 0z m-445.217392 616.9441L508.819876-45.31677000000002l432.496894 597.863354L737.78882 832.397516H279.850932L76.322981 552.5465839999999zM38.161491 584.3478259999999h941.31677v-63.602484H38.161491zM477.018634-108.91925500000002l-190.807454 661.465839L483.378882 876.919255l50.881988-31.801243-178.086957-298.931677 184.447205-636.024844zM540.621118-108.91925500000002l-63.602484 19.080746 184.447205 636.024844L483.378882 845.118012l50.881988 31.801243 197.167701-324.372671z"  horiz-adv-x="1030" />

    
    <glyph glyph-name="dollar" unicode="&#58632;" d="M512-64A448 448 0 1 0 512 832a448 448 0 0 0 0-896M512 896a512 512 0 1 1 0-1024A512 512 0 0 1 512 896M673.664 479.424c0 70.72-71.616 128-160 128-88.32 0-160-57.28-160-128 0-70.656 71.68-128 160-128v64c-52.992 0-96 28.672-96 64s43.008 64 96 64c53.056 0 96-28.672 96-64h64zM353.664 287.424c0-70.656 71.68-128 160-128 88.384 0 160 57.344 160 128 0 70.72-71.616 128-160 128v-64c53.056 0 96-28.672 96-64s-42.944-64-96-64c-52.992 0-96 28.672-96 64h-64zM481.664 702.72h64v-639.616h-64z"  horiz-adv-x="1024" />

    
    <glyph glyph-name="user-setting" unicode="&#58646;" d="M780.8 204.79999999999995c-54.4 0-98.4-44-98.4-98.4 0-54.4 44-98.4 98.4-98.4 54.4 0 98.4 44 98.4 98.4 0 54.4-44 98.4-98.4 98.4z m0-156c-32 0-58.4 26.4-58.4 58.4s26.4 58.4 58.4 58.4 58.4-26.4 58.4-58.4c0-32.8-26.4-58.4-58.4-58.4zM992 180c-25.6 0-45.6 20.8-45.6 45.6 0 8.8 2.4 16.8 7.2 24 3.2 4.8 4 10.4 2.4 15.2-1.6 5.6-4.8 9.6-9.6 12.8L848 335.20000000000005c-4.8 2.4-10.4 3.2-15.2 2.4-4.8-1.6-9.6-4.8-12-9.6-8-14.4-23.2-23.2-40-23.2-16 0-31.2 8.8-40 23.2-5.6 9.6-17.6 12.8-27.2 7.2l-98.4-56.8c-4.8-2.4-8-7.2-9.6-12.8-1.6-5.6-0.8-11.2 2.4-15.2 4.8-7.2 7.2-16 7.2-24 0-25.6-20.8-45.6-45.6-45.6-11.2 0-20-8.8-20-20v-101.6c0-11.2 8.8-20 20-20 25.6 0 45.6-20.8 45.6-45.6 0-9.6-3.2-19.2-8.8-27.2-3.2-4.8-4.8-10.4-3.2-16s4.8-10.4 9.6-13.6l101.6-58.4c3.2-1.6 6.4-2.4 9.6-2.4 7.2 0 13.6 3.2 17.6 9.6 8 14.4 23.2 23.2 40 23.2 16 0 31.2-8.8 40-23.2 2.4-4.8 7.2-8 12-9.6 4.8-1.6 10.4-0.8 15.2 2.4l101.6 58.4c4.8 3.2 8.8 8 9.6 13.6s0 11.2-3.2 16c-5.6 8-8.8 17.6-8.8 27.2 0 25.6 20.8 45.6 45.6 45.6 11.2 0 20 8.8 20 20V160c-1.6 11.2-10.4 20-21.6 20z m-20-103.2c-37.6-8.8-65.6-43.2-65.6-83.2 0-11.2 2.4-21.6 5.6-31.2l-68.8-40c-16 16.8-38.4 27.2-62.4 27.2s-46.4-9.6-62.4-27.2l-68.8 40c4 9.6 5.6 20.8 5.6 31.2 0 40.8-28 74.4-65.6 83.2v66.4c37.6 8.8 65.6 43.2 65.6 83.2 0 8.8-1.6 17.6-4 26.4l67.2 39.2c16-16.8 38.4-27.2 62.4-27.2s46.4 9.6 62.4 27.2l67.2-39.2c-2.4-8.8-4-17.6-4-26.4 0-40.8 28-74.4 65.6-83.2v-66.4zM588 361.6c4 10.4-1.6 21.6-12 25.6-45.6 16.8-93.6 25.6-142.4 25.6-224.8 0-408-183.2-408-408 0-11.2 8.8-20 20-20s20 8.8 20 20c0 203.2 164.8 368 368 368 44 0 87.2-8 128.8-23.2 10.4-3.2 21.6 2.4 25.6 12zM442.4 452c120 0 217.6 97.6 217.6 217.6C660.8 790.4 563.2 888 442.4 888S224.8 790.4 224.8 670.4s97.6-218.4 217.6-218.4z m0 396c98.4 0 177.6-80 177.6-177.6 0-98.4-80-177.6-177.6-177.6s-177.6 80-177.6 177.6S344.8 848 442.4 848z"  horiz-adv-x="1024" />

    
    <glyph glyph-name="Identity" unicode="&#58645;" d="M168.595 746.78c-60.708 0-104.463-43.607-104.463-104.464v-507.385c0-60.857 43.754-104.464 104.463-104.464h686.468c60.708 0 104.462 43.607 104.462 104.464V642.316c0 60.857-43.754 104.464-104.462 104.464H168.595z m686.47-671.543h-686.47c-37.734 0-59.694 21.874-59.694 59.694V642.316c0 37.828 21.968 59.695 59.694 59.695h686.468c37.725 0 59.692-21.87 59.692-59.695v-507.385s-14.008-59.694-59.69-59.694zM607.18 478.164h152.53c11.437 0 20.738 10.038 20.738 22.385 0 12.342-9.302 22.382-20.738 22.382H607.18c-11.434 0-20.735-10.04-20.735-22.382 0-12.347 9.301-22.385 20.736-22.385z m0-119.388h152.53c11.437 0 20.738 10.043 20.738 22.383 0 12.35-9.302 22.386-20.738 22.386H607.18c-11.434 0-20.735-10.035-20.735-22.386 0-12.34 9.301-22.383 20.736-22.383z m227.051-74.613H607.274c-11.485 0-20.828-10.044-20.828-22.389 0-12.343 9.343-22.378 20.828-22.378h226.958c11.49 0 20.832 10.035 20.832 22.378 0 12.346-9.343 22.39-20.832 22.39z m-343.14 29.59c-24.427 25.951-55.645 44.86-90.273 54.678l-2.922 0.824 2.677 1.423c37.432 19.828 60.687 57.796 60.687 99.098 0 62.225-51.193 112.85-114.116 112.85-62.944 0-114.15-50.624-114.15-112.85 0-41.29 23.244-79.254 60.67-99.083l2.677-1.422-2.917-0.831c-34.536-9.787-65.696-28.617-90.116-54.46-24.924-26.376-41.725-59.003-48.579-94.347-1.057-5.392 0.079-10.862 3.194-15.406 3.119-4.548 7.87-7.628 13.327-8.67a20.76 20.76 0 0 1 4.14-0.427c9.809 0 18.297 7.05 20.194 16.768 13.879 71.605 78.184 117.036 152.09 117.036 74.142 0 137.304-45.661 150.996-117.567 1.843-9.7 10.432-16.741 20.412-16.741 1.375 0 2.65 0.11 3.885 0.343 11.27 2.116 18.708 12.89 16.575 24.028-6.759 35.507-23.514 68.269-48.451 94.756zM347.69 537.856c41.136 0 74.6-33.474 74.6-74.62 0-41.138-33.464-74.613-74.6-74.613-41.152 0-74.633 33.475-74.633 74.614 0.001 41.146 33.48 74.62 74.633 74.62z m0 0"  horiz-adv-x="1024" />

    
    <glyph glyph-name="BTC" unicode="&#58664;" d="M612.67968 344.14592000000005a202.71104 202.71104 0 0 1-69.34528 15.93344c-31.3344 2.048-71.4752 0-71.4752 0v-135.53664s41.94304-0.90112 69.95968 1.2288a200.54016 200.54016 0 0 1 71.4752 17.03936 55.95136 55.95136 0 0 1-0.6144 101.33504z m-88.2688 78.848a153.6 153.6 0 0 1 65.24928 15.93344c18.0224 9.0112 28.71296 28.0576 27.15648 48.128a54.64064 54.64064 0 0 1-41.94304 50.50368 200.86784 200.86784 0 0 1-63.16032 8.84736c-19.78368 0.28672-39.85408-1.47456-39.85408-1.47456v-121.93792s29.4912-0.90112 52.55168 0zM512 896C229.21216 896 0 666.78784 0 384S229.21216-128 512-128 1024 101.21216000000004 1024 384A512 512 0 0 1 512 896z m208.4864-707.7888a210.04288 210.04288 0 0 0-96.8704-33.62816c-13.43488-1.55648-26.95168-2.6624-40.42752-3.35872v-102.68672h-63.20128v100.7616H471.8592v-100.9664H408.65792v101.00736H284.38528l12.77952 75.89888h37.80608a29.12256 29.12256 0 0 1 23.30624 6.18496 25.6 25.6 0 0 1 6.5536 18.88256V512a34.11968 34.11968 0 0 1-8.88832 29.24544 52.18304 52.18304 0 0 1-35.2256 9.54368H284.2624v65.536h124.27264V717.70112h63.20128v-101.29408h48.128V717.66016h63.16032v-102.4a199.76192 199.76192 0 0 0 112.76288-34.52928c26.78784-22.69184 40.5504-57.22112 36.61824-92.11904-1.51552-17.89952-7.29088-35.2256-16.7936-50.46272a142.45888 142.45888 0 0 0-36.61824-30.14656 154.0096 154.0096 0 0 0 52.26496-22.7328c25.8048-21.13536 39.48544-53.61664 36.61824-86.8352a126.64832 126.64832 0 0 0-47.34976-110.1824z"  horiz-adv-x="1024" />

    
    <glyph glyph-name="xingzhuang" unicode="&#58671;" d="M745.364211 308.601263l-114.149053-103.747368-0.431158-0.377263a37.402947 37.402947 0 0 0-24.037053-9.108211 38.265263 38.265263 0 0 0-24.629894 7.814737c-13.850947 11.048421-14.551579 29.103158-1.509053 40.798316l60.901053 55.349894H303.804632c-18.970947 0-34.384842 12.934737-34.384843 28.887579 0 15.898947 15.413895 28.833684 34.438737 28.833685h416.121263c30.019368 0 45.648842-29.965474 25.330527-48.451369m-466.728421 204.8l114.149052 104.016842A37.241263 37.241263 0 0 0 416.498526 626.526316a38.373053 38.373053 0 0 0 24.468211-7.491369c14.066526-10.725053 15.198316-28.995368 2.425263-40.85221l-60.901053-55.511579h337.650527c18.970947 0 34.384842-12.934737 34.384842-28.941474 0-15.952842-15.413895-28.887579-34.492632-28.887579H303.966316c-30.019368 0-45.648842 30.019368-25.330527 48.505263M512 896C229.268211 896 0 666.7317889999999 0 384S229.268211-128 512-128 1024 101.26821099999995 1024 384 794.731789 896 512 896"  horiz-adv-x="1024" />

    
    <glyph glyph-name="user2" unicode="&#58648;" d="M958.744-63H65.256c5.43 164.648 99.9 306.757 236.805 379.726A299.076 299.076 0 0 0 212 531c0 165.685 134.315 300 300 300s300-134.315 300-300a299.076 299.076 0 0 0-90.061-214.274C858.844 243.75699999999995 953.315 101.64800000000002 958.744-63zM752 531c0 132.548-107.452 240-240 240S272 663.548 272 531s107.452-240 240-240 240 107.452 240 240z m-82.542-255.384a300.157 300.157 0 0 0-314.916 0C241.3 225.11400000000003 156.782 121.81799999999998 132.269-3h759.462C867.218 121.81799999999998 782.7 225.11400000000003 669.458 275.616z"  horiz-adv-x="1024" />

    
    <glyph glyph-name="invite" unicode="&#58644;" d="M962.133333 439.466667v4.266666 2.133334c0 2.133333 0 2.133333-2.133333 4.266666 0 0 0 2.133333-2.133333 2.133334 0 2.133333-2.133333 2.133333-2.133334 2.133333l-2.133333 2.133333-72.533333 61.866667V704c0 49.066667-40.533333 87.466667-87.466667 87.466667H563.2l-34.133333 29.866666c-10.666667 8.533333-25.6 8.533333-34.133334 0l-34.133333-29.866666H232.533333C183.466667 791.466667 145.066667 750.933333 145.066667 704v-183.466667l-72.533334-61.866666-2.133333-2.133334-2.133333-2.133333s0-2.133333-2.133334-2.133333c-2.133333-4.266667-2.133333-4.266667-2.133333-6.4v-430.933334c0-40.533333 34.133333-74.666667 74.666667-74.666666h750.933333c40.533333 0 74.666667 34.133333 74.666667 74.666666l-2.133334 424.533334z m-72.533333 2.133333l-8.533333-6.4V448l8.533333-6.4zM196.266667 704c0 19.2 14.933333 34.133333 34.133333 34.133333h563.2c19.2 0 34.133333-14.933333 34.133333-34.133333v-298.666667L512 219.73333300000002 196.266667 405.333333V704zM145.066667 450.133333v-12.8l-8.533334 6.4 8.533334 6.4z m763.733333-435.2c0-12.8-10.666667-21.333333-21.333333-21.333333H136.533333c-12.8 0-21.333333 10.666667-21.333333 21.333333V390.4l8.533333-4.266667 375.466667-221.866666c8.533333-4.266667 19.2-4.266667 27.733333 0l384 226.133333v-375.466667z"  horiz-adv-x="1024" />

    
    <glyph glyph-name="EOS" unicode="&#58663;" d="M1024 384c0-282.624-229.376-512-512-512S0 101.37599999999998 0 384 229.376 896 512 896 1024 666.624 1024 384zM315.904 510.976l39.936-123.392-112.128-196.608 72.192 320z m352.256-123.392l39.936 123.392 71.68-320-111.616 196.608z m-9.216-28.672l133.12-234.496-260.608-157.696 127.488 392.192z m-166.912-391.68l-260.608 157.696 133.12 234.496 127.488-392.192zM512 616.96l132.096-231.936L512-22.015999999999963l-132.096 407.04L512 616.96z m-11.264 25.6l-130.048-228.864-44.544 137.216 174.592 240.64v-148.992z m22.528 148.992l174.592-240.64-44.544-137.216-130.048 228.864v148.992z m294.4-668.16l-96.768 432.128c-0.512 1.536-1.024 3.072-2.048 4.096l-198.144 272.896c-2.048 3.072-5.632 4.608-9.216 4.608s-6.656-1.536-9.216-4.608l-198.144-272.896c-1.024-1.024-1.536-2.56-2.048-4.096l-96.768-432.128c-1.024-4.608 1.024-9.216 5.12-11.776l294.912-178.688h0.512s0.512 0 0.512-0.512c0.512 0 0.512-0.512 1.024-0.512h0.512c0.512 0 0.512 0 1.024-0.512H513.024c0.512 0 0.512 0 1.024 0.512h0.512c0.512 0 0.512 0 1.024 0.512 0 0 0.512 0 0.512 0.512h0.512l294.912 178.688c5.12 2.048 7.168 7.168 6.144 11.776z"  horiz-adv-x="1024" />

    
    <glyph glyph-name="ETH" unicode="&#58662;" d="M635.361921 880.453771C361.560061 949.656439 84.74939 781.162987 15.546722 507.361127-53.655946 233.55926699999998 114.837506-43.25140399999998 388.639366-112.454072c273.80186-69.202668 550.612531 99.290784 619.815199 373.092644C1077.657233 534.440432 909.163781 811.2511030000001 635.361921 880.453771z m-141.414148-842.467261L277.313335 341.876487l216.634438-126.37009 216.634439 126.37009-216.634439-303.889977z m3.008812 219.64325L280.322147 383.99985000000004l216.634438 358.048585L713.591024 383.99985000000004l-216.634439-126.37009z"  horiz-adv-x="1025" />

    
    <glyph glyph-name="laba" unicode="&#58640;" d="M607.4368-47.155200000000036a24.4224 24.4224 0 0 0-14.848 4.992L294.8096 184.57600000000002H24.5248A24.5248 24.5248 0 0 0 0 209.1264V558.8736c0 13.5424 10.9824 24.5504 24.5248 24.5504h270.2848l297.7536 226.688a24.5504 24.5504 0 0 0 39.3728-19.5072v-813.2096a24.5248 24.5248 0 0 0-24.4992-24.5504zM49.0752 233.72799999999995h253.9776c5.376 0 10.624-1.7664 14.8992-5.0432l264.9344-201.6768V741.0944l-264.9344-201.728a24.6528 24.6528 0 0 0-14.8992-5.0176H49.0752V233.72799999999995z m0 0M262.784 570.2144000000001h51.0976v-375.5264h-51.0976zM1024 384.384c0-20.2752-23.6544-36.864-52.5312-36.864h-186.9568c-28.9024 0-52.5312 16.5888-52.5312 36.864s23.6288 36.8896 52.5312 36.8896h186.9568c28.8768 0 52.5312-16.6144 52.5312-36.8896zM911.872-29.15840000000003c-14.336-14.336-42.8032-9.344-63.2064 11.0592l-132.1984 132.1984c-20.4288 20.4544-25.3952 48.8704-11.0848 63.232 14.3616 14.336 42.8032 9.3952 63.2576-11.0336l132.1984-132.1984c20.4288-20.4288 25.3952-48.9216 11.0336-63.2576zM911.8976 797.7728c14.336-14.336 9.344-42.8032-11.0848-63.2064l-132.1984-132.1984c-20.4288-20.4288-48.8704-25.3952-63.2064-11.0848-14.3616 14.3616-9.3952 42.8288 11.0336 63.2576l132.1984 132.1984c20.4288 20.4288 48.9216 25.3952 63.2576 11.0336z"  horiz-adv-x="1024" />

    
    <glyph glyph-name="zichan" unicode="&#58649;" d="M512 836.608c-249.856 0-452.608-203.264-452.608-452.608s203.264-452.608 452.608-452.608 452.608 203.264 452.608 452.608-202.752 452.608-452.608 452.608z m381.952-452.608c0-210.432-171.52-381.952-381.952-381.952S130.048 173.56799999999998 130.048 384c0 210.432 171.52 381.952 381.952 381.952s381.952-171.52 381.952-381.952zM706.56 376.32000000000005c19.456 0 35.328 15.872 35.328 35.328s-15.872 35.328-35.328 35.328h-136.704l129.536 129.536c13.824 13.824 13.824 36.352 0 50.176-6.656 6.656-15.872 10.24-25.088 10.24s-18.432-3.584-25.088-10.24L512 489.984 374.784 626.688c-6.656 6.656-15.36 10.24-25.088 10.24-9.728 0-18.432-3.584-25.088-10.24-13.824-13.824-13.824-36.352 0-50.176l129.536-129.536H317.44c-19.456 0-35.328-15.872-35.328-35.328s15.872-35.328 35.328-35.328h159.232v-40.448H317.44c-19.456 0-35.328-15.872-35.328-35.328s15.872-35.328 35.328-35.328h159.232v-131.584c0-19.456 15.872-35.328 35.328-35.328s35.328 15.872 35.328 35.328v131.584H706.56c19.456 0 35.328 15.872 35.328 35.328s-15.872 35.328-35.328 35.328h-159.232v40.448H706.56z"  horiz-adv-x="1024" />

    
    <glyph glyph-name="order2" unicode="&#58656;" d="M684.222469-128H68.837853v1024h886.153847v-787.692308l-1.378462-4.332307c-2.953846-9.255385-75.224615-231.975385-269.390769-231.975385zM127.914777-68.92307700000003h556.307692c139.027692 0 201.846154 159.507692 211.692308 186.88V836.726154H127.914777zM255.914777 671.704615l462.76923 0 0-59.076923-462.76923 0 0 59.076923ZM255.914777 474.781538l440.713846 0 0-59.076923-440.713846 0 0 59.076923ZM255.914777 272.147692l326.498461 0 0-59.076923-326.498461 0 0 59.076923Z"  horiz-adv-x="1024" />

    
    <glyph glyph-name="exits" unicode="&#58642;" d="M960.512 356.288L815.744 211.45600000000002l-48.256 48.256L827.712 320H512v64h325.76l-70.272 70.272 48.256 48.256L960.512 357.76l-0.704-0.768 0.704-0.704zM704 704a64 64 0 0 1-64 64H192a64 64 0 0 1-64-64v-640a64 64 0 0 1 64-64h448a64 64 0 0 1 64 64v64h64v-64a128 128 0 0 0-128-128H192A128 128 0 0 0 64 64V704A128 128 0 0 0 192 832h448a128 128 0 0 0 128-128v-128h-64V704z"  horiz-adv-x="1024" />

    
    <glyph glyph-name="kefu" unicode="&#58633;" d="M76.8 327.9v-99.6c0-41.2 34.8-74.6 77.6-74.6 42.9 0 77.6 33.4 77.6 74.6v99.6c0 41.2-34.8 74.6-77.6 74.6-42.9 0-77.6-33.4-77.6-74.6z m713.3-190c-25.8 23-40.6 55.8-40.7 90.4V328c0 68.3 57.4 123.7 128.4 124.2-13.3 180.6-170 323.2-361.3 323.2s-348-142.6-361.3-323.2c71-0.5 128.4-56 128.4-124.2v-99.6c0-68.7-57.9-124.3-129.3-124.3C82.9 103.89999999999998 25 159.60000000000002 25 228.29999999999995v99.6c0 49.5 30.6 94.3 77.9 114C110.9 654.8 293 825 516.6 825s405.6-170.3 413.6-383.2c47.3-19.7 77.9-64.5 77.9-114v-99.6c0-40.4-20.5-78.3-54.8-101.5-34.7-23.3-78.3-29-117.9-15.5-49.4-49.8-109.9-87.1-176.6-108.9-1.3-47.3-41.6-84.9-90.7-84.8H491c-50.2 0-90.8 38.8-90.8 87s40.5 87 90.8 87h77c32.7 0 61.3-16.4 77.2-41.1 54.2 18.3 103.6 48.1 144.9 87.5z m11 190v-99.6c0-41.2 34.8-74.6 77.6-74.6 42.9 0 77.6 33.4 77.6 74.6v99.6c0 41.2-34.8 74.6-77.6 74.6s-77.6-33.4-77.6-74.6zM491-32.700000000000045h77.1c21.8 0 39.1 16.6 39.1 37.3 0 20.7-17.4 37.3-39.1 37.3H491c-21.7 0-39.1-16.6-39.1-37.3 0-20.7 17.4-37.3 39.1-37.3z m0 0"  horiz-adv-x="1024" />

    
    <glyph glyph-name="yinhangqia" unicode="&#58669;" d="M601.88 280.817h40.164v-39.909H601.88v39.909zM701.14 280.817h40.165v-39.909H701.14v39.909zM512 832.354c-247 0-447.231-200.23-447.231-447.23 0-246.999 200.232-447.232 447.23-447.232 247 0 447.23 200.233 447.23 447.232 0 247-200.23 447.23-447.23 447.23zM789.144 213.27999999999997s-1.876-36.328-37.863-41.444H276.297s-28.481 1.706-34.11 38.545l-1.056 218.816h548.014V213.27999999999997z m0 353.296v-67.026l-548.014 0.27 1.056 68.803c5.884 29.42 34.281 30.187 34.281 30.187h473.28c39.908-4.093 39.397-32.234 39.397-32.234zM651.254 280.817h40.165v-39.909h-40.165v39.909z"  horiz-adv-x="1024" />

    
    <glyph glyph-name="zhifubao" unicode="&#3666;" d="M264.50351563 327.27890625c-10.62333984-8.55-22.01044922-21.03222657-25.31689454-36.9-4.50000001-21.67910156-0.93955078-48.81533203 19.97578125-70.10244141 25.33710938-25.80644532 63.84111328-32.86933594 80.47265625-34.08310546 45.17578125-3.26689453 93.32578126 19.13554687 129.61845704 44.68710937 14.22421875 10.03710938 38.58310547 30.18955078 61.86621093 61.27822267-52.18066405 26.94111328-117.31376953 56.73955078-186.94599609 53.82421875-35.56933594-1.48710937-61.04355469-8.86289062-79.67021484-18.70400392z m661.69248046-119.13134766C949.22333984 262.20644531999994 962 321.62578125000005 962 384 962 632.1257812399999 760.14599609 834 512 834 263.85400391 834 62 632.1257812399999 62 384c0-248.14599609 201.85400391-450 450-450 149.75244141 0 282.56044922 73.58466797 364.42177734 186.43710938-77.34111328 38.44511719-204.80888672 101.71933594-283.32421875 140.00888671-37.46777344-42.71132813-92.85644531-85.52021484-155.42578125-104.1459961-39.30644531-11.68066406-74.73955078-16.14111328-111.79599609-8.56933593-36.68466797 7.51289063-63.70400391 24.69111328-79.45400391 41.90888672-8.02177734 8.78466797-17.23710937 19.95644531-23.90888671 33.24023438a62.62207031 62.62207031 0 0 1 1.05644531-2.67978516s-3.83466797 6.61289063-6.76933594 17.13867186a75.58066405 75.58066405 0 0 0-2.93554687 15.94599611 82.19267578 82.19267578 0 0 0-0.17578125 11.46533203c-0.33222656 6.76933594-0.0580078 13.87177734 1.46777343 21.14999999 3.67822266 17.78466797 11.26933594 38.50488281 30.91289063 57.73710938 43.12177734 42.22177734 100.87822266 44.49111328 130.79355469 44.31445312 44.31533203-0.25400391 121.32421875-19.64355469 186.16289062-42.57333983 17.96132813 38.25 29.48466797 79.16132812 36.92021484 106.43554687H330.33710937v29.1515625h138.4435547v58.30400391H301.18466797v29.1524414h167.59599608v58.28466797c0 8.00244141 1.58466797 14.57578125 14.57578126 14.57578125h65.58310547v-72.86044922h182.19111328v-29.1524414H548.93955078v-58.30400391h145.74023438s-14.63378906-81.58710938-60.3975586-162c101.56376953-36.27421876 244.44843749-92.15244141 291.91376953-110.81777344z"  horiz-adv-x="1024" />

    
    <glyph glyph-name="app" unicode="&#58631;" d="M501.85327 480.513897v-85.972294h24.592075q49.983892 0 49.983892 43.485986 0 42.466315-49.484053 42.456318h-25.091914zM832.586686 591.997969V832.020618a63.979382 63.979382 0 0 1-63.979382 63.979382h-512.034988a63.979382 63.979382 0 0 1-63.979382-63.979382v-240.022649H73.191413v-400.001093h119.381527v-255.997501a63.979382 63.979382 0 0 1 63.979382-63.979381h512.034989a63.979382 63.979382 0 0 1 63.979381 63.979381V191.99687600000004H950.808587V591.997969H832.586686zM768.587311 816.025773v-224.027804H256.582312V816.025773h512.004999zM636.100007 440.296857q0-40.89682-29.990335-65.558872t-75.035819-23.642381H501.85327v-92.810091h-56.721721V524.519715h91.620474q99.32799 0 99.337987-84.222858z m-410.607675-120.961018l-19.593686-60.980348H144.358478l97.448596 266.234202h66.698505l95.559205-266.234202h-61.880058l-19.933576 60.980348h-96.768815z m287.087481-415.336151a31.989691 31.989691 0 1 0 31.989691 31.98969 31.989691 31.989691 0 0 0-31.989691-31.98969z m255.997501 95.969072H256.572316V191.99687600000004h512.014995v-191.998126z m61.47019 374.739234q-29.990335-24.682046-74.975838-23.64238h-29.250573v-92.810091H669.099372V524.519715h91.600481q99.377974 0 99.347983-84.222858 0-40.89682-29.990335-65.558872z m-79.134497 105.805903h-25.091914v-85.972294h24.562084q49.983892 0 49.983892 43.485986 0 42.466315-49.504046 42.456318z m-476.436461-1.889391h-1.559498a98.228344 98.228344 0 0 0-4.628508-22.482755l-30.430194-92.970039h70.977127l-30.250251 92.300255q-2.929056 8.667207-4.108676 23.152539z"  horiz-adv-x="1024" />

    
    <glyph glyph-name="USDT" unicode="&#58661;" d="M577 435v-91q79 5 128.5 17t50.5 29q-1 16-50.5 28T577 435z m-312-45q2-17 52.5-29T448 344v91q-80-4-130.5-16.5T265 390zM512 896Q294 891 149.5 746.5T0 384q5-218 149.5-362.5T512-128q218 5 362.5 149.5T1024 384q-5 218-149.5 362.5T512 896z m65-582v-250H448V314q-110 5-179 24.5T197 385q3 27 72 46.5T448 456v79H279V658h465v-123H577v-79q109-6 178-25t72-46q-3-27-72-46t-178-25z"  horiz-adv-x="1024" />

    


  </font>
</defs>
</svg>
