<?xml version="1.0" standalone="no"?><!DOCTYPE svg PUBLIC "-//W3C//DTD SVG 1.1//EN" "http://www.w3.org/Graphics/SVG/1.1/DTD/svg11.dtd"><svg t="1545725631321" class="icon" style="" viewBox="0 0 1024 1024" version="1.1" xmlns="http://www.w3.org/2000/svg" p-id="547" xmlns:xlink="http://www.w3.org/1999/xlink" width="32" height="32"><defs><style type="text/css"></style></defs><path d="M0 512v512h1024V0H0v512z m378.026667-387.413333l18.773333 39.253333 55.466667-6.826667c78.506667-10.24 110.08-8.533333 124.586666 5.973334 14.506667 15.36 8.533333 38.4-11.946666 46.08-7.68 2.56-43.52 7.68-81.066667 10.24-52.906667 4.266667-65.706667 7.68-61.44 17.066666 2.56 6.826667 4.266667 17.92 4.266667 25.6 0 10.24 11.093333 11.093333 67.413333 5.973334 81.066667-6.826667 111.786667-0.853333 111.786667 21.333333 0 20.48-7.68 23.04-89.6 25.6-37.546667 0.853333-68.266667 2.56-69.12 3.413333-0.853333 0.853333 0 11.093333 2.56 23.893334 4.266667 21.333333 4.266667 21.333333 90.453333 21.333333 81.92-0.853333 87.04 0 87.04 16.213333 0 14.506667-5.973333 17.066667-38.4 18.773334-21.333333 1.706667-58.026667 4.266667-81.066667 6.826666l-43.52 5.12 3.413334 29.013334 3.413333 29.013333 87.04-1.706667c75.093333-1.706667 91.306667 0.853333 123.733333 17.92 20.48 11.093333 37.546667 18.773333 38.4 17.066667 1.706667-1.706667 8.533333-17.066667 17.066667-34.986667 14.506667-32.426667 26.453333-43.52 16.213333-17.066666-9.386667 26.453333 6.826667 5.973333 40.96-52.906667 36.693333-64 51.2-105.813333 44.373334-133.12-3.413333-12.8-1.706667-17.066667 4.266666-12.8 15.36 9.386667 29.013333 71.68 23.04 101.546667-3.413333 15.36-15.36 41.813333-27.306666 59.733333-11.946667 17.066667-20.48 34.133333-17.92 35.84 7.68 8.533333 51.2-32.426667 62.293333-58.026667l11.093333-25.6 5.12 25.6c13.653333 61.44-34.133333 139.946667-100.693333 168.106667-32.426667 13.653333-40.96 30.72-15.36 30.72 28.16-0.853333 84.48-32.426667 106.666667-60.586667l23.04-29.013333v34.133333c-0.853333 53.76-27.306667 102.4-73.386667 131.413334-37.546667 23.893333-40.96 24.746667-64 13.653333-28.16-15.36-33.28-15.36-33.28-3.413333s22.186667 33.28 34.133333 33.28c14.506667 0 1.706667 32.426667-29.013333 75.946666-71.68 101.546667-267.093333 171.52-393.386667 140.8-73.386667-17.066667-141.653333-67.413333-170.666666-125.44-35.84-73.386667-23.04-180.906667 23.893333-197.12 34.986667-12.8 45.226667 2.56 33.28 44.373334-22.186667 74.24-7.68 133.12 43.52 178.346666 37.546667 33.28 77.653333 45.226667 151.893333 45.226667 148.48 0 301.226667-104.106667 285.866667-195.413333-3.413333-17.066667-7.68-44.373333-11.093333-60.586667-11.093333-63.146667-77.653333-93.013333-196.266667-87.04l-35.84 1.706667-2.56 48.64c-2.56 46.08-4.266667 49.493333-23.893333 49.493333s-21.333333-3.413333-23.893334-40.96l-2.56-40.106667h-78.506666c-114.346667-0.853333-166.4-28.16-203.093334-106.666666-17.92-38.4-20.48-93.013333-6.826666-129.706667C157.013333 256.853333 238.933333 196.266667 309.76 183.466667c34.986667-6.826667 39.253333-19.626667 19.626667-54.613334-14.506667-25.6-8.533333-43.52 12.8-43.52 11.093333 0 23.04 12.8 35.84 39.253334zM682.666667 647.68c13.653333 27.306667 10.24 50.346667-11.946667 64.853333-16.213333 11.093333-23.893333 11.093333-42.666667 3.413334-28.16-13.653333-35.84-37.546667-18.773333-63.146667 17.92-26.453333 59.733333-29.013333 73.386667-5.12z m-109.226667 23.893333c19.626667 17.92 19.626667 40.96-1.706667 62.293334-27.306667 27.306667-76.8 7.68-76.8-30.72 0-40.96 46.933333-60.586667 78.506667-31.573334z m-100.693333 27.306667c19.626667 21.333333 15.36 41.813333-13.653334 63.146667-21.333333 16.213333-23.893333 16.213333-44.373333 2.56-23.893333-15.36-29.866667-53.76-11.946667-71.68 15.36-15.36 53.76-11.946667 69.973334 5.973333zM359.253333 716.8c23.893333 13.653333 21.333333 55.466667-4.266666 72.533333-46.933333 30.72-94.72-35.84-49.493334-70.826666 16.213333-12.8 31.573333-12.8 53.76-1.706667z" fill="#d81e06" p-id="548"></path><path d="M311.466667 233.813333c-47.786667 15.36-79.36 37.546667-95.573334 67.413334-11.946667 23.893333-11.946667 25.6 2.56 19.626666 9.386667-3.413333 48.64-14.506667 88.746667-23.893333 40.106667-10.24 73.386667-18.773333 75.093333-19.626667 0.853333-0.853333-2.56-13.653333-7.68-28.16-10.24-29.866667-13.653333-30.72-63.146666-15.36zM311.466667 341.333333c-95.573333 24.746667-108.373333 31.573333-104.96 53.76 3.413333 23.04 11.093333 23.04 115.2-4.266666 75.946667-18.773333 79.36-20.48 79.36-43.52 0-27.306667-6.826667-28.16-89.6-5.973334zM323.413333 434.346667c-69.973333 18.773333-82.773333 26.453333-65.706666 35.84 19.626667 11.093333 104.106667 18.773333 136.533333 12.8 27.306667-5.12 29.013333-6.826667 25.6-34.986667-4.266667-34.986667-11.946667-36.693333-96.426667-13.653333zM627.2 660.48c-17.066667 12.8-17.066667 12.8 0 29.866667 15.36 15.36 18.773333 15.36 34.133333 4.266666 12.8-9.386667 14.506667-15.36 7.68-26.453333-12.8-19.626667-23.04-22.186667-41.813333-7.68zM523.946667 686.08c-16.213333 12.8-16.213333 12.8 1.706666 30.72l17.066667 17.92 16.213333-17.066667c11.946667-14.506667 12.8-19.626667 4.266667-30.72-12.8-16.213333-17.92-16.213333-39.253333-0.853333zM418.133333 712.533333c-8.533333 10.24-8.533333 15.36 0.853334 27.306667 5.973333 8.533333 12.8 17.066667 13.653333 18.773333 1.706667 1.706667 10.24-3.413333 19.626667-11.946666 12.8-11.093333 14.506667-18.773333 7.68-30.72-10.24-19.626667-27.306667-20.48-41.813334-3.413334zM311.466667 738.133333c-16.213333 12.8-16.213333 12.8 1.706666 31.573334 17.066667 17.066667 18.773333 17.066667 33.28 2.56 11.093333-10.24 12.8-17.92 6.826667-28.16-11.946667-18.773333-22.186667-20.48-41.813333-5.973334z" fill="#d81e06" p-id="549"></path></svg>